<?xml version="1.0" encoding="utf-8"?>
<!DOCTYPE svg PUBLIC "-//W3C//DTD SVG 20010904//EN" "http://www.w3.org/TR/2001/REC-SVG-20010904/DTD/svg10.dtd">
<svg version="1.0" xmlns="http://www.w3.org/2000/svg" width="800px" height="800px" viewBox="0 0 800 800" preserveAspectRatio="xMidYMid meet">
 <g fill="#ffffff">
  <path d="M90.4 720.6 c-8.6 -4 -12.9 -11.7 -14.1 -25.1 -1.6 -19.9 8.7 -33.5 25.5 -33.5 12 0 19.1 3.9 23.9 13.4 2.3 4.3 2.8 6.7 3.1 15.1 0.3 8.5 0.1 10.9 -1.8 16 -2.7 7.2 -8.8 13.5 -14.7 15.3 -6.8 2 -16.1 1.5 -21.9 -1.2z m20.3 -4.6 c1.8 -1 4.2 -3.9 5.5 -6.2 2.1 -3.8 2.3 -5.7 2.3 -17.3 0 -11.6 -0.2 -13.5 -2.3 -17.3 -3.3 -6.2 -7.3 -8.4 -14.5 -7.9 -6.8 0.4 -10.7 3.4 -13.4 10.6 -2.4 6.3 -2.4 23.9 0.1 29.6 1.9 4.5 5.2 8.3 8.1 9.5 3.7 1.6 10.9 1.1 14.2 -1z"/>
  <path d="M742.4 721.6 c-4.2 -1.8 -6.4 -5.2 -6.4 -9.7 0 -6.5 5.8 -8.3 7.1 -2.2 0.8 4.2 2.6 6.3 6.7 8 7 2.9 14.6 -1.9 14.6 -9.2 0 -5.3 -2.6 -7.9 -12.9 -13 -11.7 -5.7 -14.7 -9.4 -14.9 -18 0 -5.9 1.6 -9.1 6.7 -12.9 3.4 -2.5 14.7 -3.4 20.1 -1.6 6.4 2.1 9.6 8.8 6 12.4 -2.6 2.6 -5.4 2 -6 -1.3 -2 -9.7 -16.2 -10 -18 -0.5 -1.2 6.4 1.4 10 10.4 14.1 13.6 6.2 17.2 10.2 17.2 19.1 0 10.1 -7.8 16.2 -20.5 16.2 -3.8 -0.1 -8.4 -0.7 -10.1 -1.4z"/>
  <path d="M35 720 c0 -1.5 0.7 -2 2.9 -2 5.9 0 6.1 -0.7 6.1 -27.2 l0 -24 -5.5 0.4 c-6.4 0.5 -7.4 1.3 -8.4 6 -0.5 2.6 -1.2 3.4 -3.4 3.6 -2.5 0.3 -2.7 0.1 -2.7 -3.6 0 -2.2 0.3 -5.4 0.6 -7.1 l0.7 -3.1 23.3 0 23.4 0 0 3.3 c0 1.7 0.3 4.9 0.6 7 0.6 3.6 0.6 3.7 -2.5 3.7 -2.8 0 -3.1 -0.3 -3.1 -2.9 0 -4.2 -4 -7.1 -9.6 -7.1 l-4.4 0 0 23.6 c0 14.3 0.4 24.3 1 25.5 0.8 1.3 2.1 1.9 4.5 1.9 2.8 0 3.5 0.4 3.5 2 0 1.9 -0.7 2 -13.5 2 -12.8 0 -13.5 -0.1 -13.5 -2z"/>
  <path d="M136 720 c0 -1.4 0.7 -2 2.3 -2 5.1 -0.1 5.2 -0.3 5.5 -24.1 0.3 -24.3 -0.2 -26.9 -5.3 -26.9 -1.8 0 -2.5 -0.5 -2.5 -2 0 -1.9 0.7 -2 9.8 -2 l9.9 0 7.8 21.8 c4.3 11.9 8.1 22 8.4 22.4 0.4 0.4 4.3 -9.2 8.7 -21.5 l7.9 -22.2 9.8 -0.3 c9.2 -0.3 9.7 -0.2 9.7 1.8 0 1.5 -0.7 2 -2.4 2 -5.3 0 -5.6 1.2 -5.6 25.5 0 24.3 0.3 25.5 5.6 25.5 1.7 0 2.4 0.5 2.4 2 0 1.9 -0.7 2 -11.5 2 -10.8 0 -11.5 -0.1 -11.5 -2 0 -1.3 0.7 -2 1.9 -2 3.8 0 4.2 -1.9 3.9 -23.3 l-0.3 -20.6 -8.5 24 -8.5 24 -2.9 -0.3 c-2.9 -0.3 -3.1 -0.8 -11.2 -22.8 -4.6 -12.4 -8.5 -22.9 -8.8 -23.5 -0.3 -0.5 -0.4 8.7 -0.3 20.5 l0.2 21.5 2.8 0.3 c1.9 0.2 2.7 0.9 2.7 2.3 0 1.7 -0.8 1.9 -10 1.9 -9.3 0 -10 -0.1 -10 -2z"/>
  <path d="M213 720 c0 -1.4 0.7 -2 2.3 -2 5.1 -0.1 5.2 -0.3 5.5 -24.1 0.3 -24.3 -0.2 -26.9 -5.3 -26.9 -1.8 0 -2.5 -0.5 -2.5 -2 0 -1.9 0.7 -2 9.8 -2 l9.9 0 7.8 21.8 c4.3 11.9 8.1 22 8.4 22.4 0.4 0.4 4.3 -9.2 8.7 -21.5 l7.9 -22.2 9.8 -0.3 c9.2 -0.3 9.7 -0.2 9.7 1.8 0 1.5 -0.7 2 -2.4 2 -5.3 0 -5.6 1.2 -5.6 25.5 0 24.3 0.3 25.5 5.6 25.5 1.7 0 2.4 0.5 2.4 2 0 1.9 -0.7 2 -11.5 2 -10.8 0 -11.5 -0.1 -11.5 -2 0 -1.3 0.7 -2 1.9 -2 3.8 0 4.2 -1.9 3.9 -23.3 l-0.3 -20.6 -8.5 24 -8.5 24 -2.9 -0.3 c-2.9 -0.3 -3.1 -0.8 -11.2 -22.8 -4.6 -12.4 -8.5 -22.9 -8.8 -23.5 -0.3 -0.5 -0.4 8.7 -0.3 20.5 l0.2 21.5 2.8 0.3 c1.9 0.2 2.7 0.9 2.7 2.3 0 1.7 -0.8 1.9 -10 1.9 -9.3 0 -10 -0.1 -10 -2z"/>
  <path d="M301 720 c0 -1.5 0.7 -2 2.8 -2 4.5 0 5.2 -1.5 5.2 -11.8 l0 -9.5 -6.7 -11.6 c-8.4 -14.7 -10.9 -18.1 -13.4 -18.1 -1.2 0 -1.9 -0.7 -1.9 -2 0 -1.9 0.7 -2 12 -2 11.3 0 12 0.1 12 2 0 1.6 -0.7 2 -3 2 -1.7 0 -3.3 0.6 -3.6 1.3 -0.3 0.8 2.2 6.5 5.4 12.8 l5.9 11.4 5.9 -11.1 c5 -9.6 5.7 -11.4 4.5 -12.8 -0.7 -0.9 -2.6 -1.6 -4.2 -1.6 -2.2 0 -2.9 -0.5 -2.9 -2 0 -1.9 0.7 -2 11 -2 10.3 0 11 0.1 11 2 0 1.3 -0.7 2 -1.8 2 -2.7 0 -4.2 2 -12.6 16.9 l-7.6 13.4 0 9.1 c0 10 0.7 11.6 5.2 11.6 2.1 0 2.8 0.5 2.8 2 0 1.9 -0.7 2 -13 2 -12.3 0 -13 -0.1 -13 -2z"/>
  <path d="M364 720 c0 -1.5 0.7 -2 2.4 -2 5 0 5.6 -2.5 5.6 -25.5 0 -23 -0.6 -25.5 -5.6 -25.5 -1.7 0 -2.4 -0.5 -2.4 -2 0 -1.9 0.7 -2 12.5 -2 11.8 0 12.5 0.1 12.5 2 0 1.5 -0.7 2 -2.8 2 -5.1 0 -5.2 0.6 -5.2 26.7 l0 24.3 8.4 0 c10.6 0 13.5 -1.9 14.3 -9.3 0.5 -4.4 0.7 -4.7 3.6 -4.7 2.8 0 2.9 0.2 2.3 3.1 -0.3 1.7 -0.6 5.8 -0.6 9 l0 5.9 -22.5 0 c-21.8 0 -22.5 -0.1 -22.5 -2z"/>
  <path d="M415 720 c0 -1.5 0.7 -2 2.4 -2 5 0 5.6 -2.5 5.6 -25.5 0 -23 -0.6 -25.5 -5.6 -25.5 -1.7 0 -2.4 -0.5 -2.4 -2 0 -1.9 0.7 -2 20.9 -2 l20.9 0 0.6 3.1 c0.3 1.7 0.6 4.9 0.6 7.1 0 3.7 -0.2 3.9 -2.7 3.6 -2.2 -0.2 -2.9 -0.9 -3.1 -2.9 -0.5 -4.7 -3.5 -6.4 -12.3 -6.8 l-7.9 -0.3 0 11.1 0 11.1 10 0 c9.3 0 10 0.1 10 2 0 1.9 -0.7 2 -10 2 l-10 0 0 12.6 0 12.6 9.6 -0.4 c8.6 -0.3 9.8 -0.5 11.5 -2.7 1 -1.3 1.9 -3.4 1.9 -4.7 0 -2 0.5 -2.4 3.1 -2.4 3 0 3.1 0.2 2.5 3.1 -0.3 1.7 -0.6 4.9 -0.6 7 l0 3.9 -22.5 0 c-21.8 0 -22.5 -0.1 -22.5 -2z"/>
  <path d="M467 720 c0 -1.5 0.7 -2 2.4 -2 5 0 5.6 -2.5 5.6 -25.5 0 -23 -0.6 -25.5 -5.6 -25.5 -1.7 0 -2.4 -0.5 -2.4 -2 0 -1.9 0.7 -2 20.9 -2 l20.9 0 0.6 3.1 c0.3 1.7 0.6 4.9 0.6 7.1 0 3.7 -0.2 3.9 -2.7 3.6 -2.2 -0.2 -2.9 -0.9 -3.1 -2.9 -0.5 -4.7 -3.5 -6.4 -12.3 -6.8 l-7.9 -0.3 0 11.1 0 11.1 10 0 c9.3 0 10 0.1 10 2 0 1.9 -0.7 2 -10 2 l-10 0 0 12.6 0 12.6 9.6 -0.4 c8.6 -0.3 9.8 -0.5 11.5 -2.7 1 -1.3 1.9 -3.4 1.9 -4.7 0 -2 0.5 -2.4 3.1 -2.4 3 0 3.1 0.2 2.5 3.1 -0.3 1.7 -0.6 4.9 -0.6 7 l0 3.9 -22.5 0 c-21.8 0 -22.5 -0.1 -22.5 -2z"/>
  <path d="M539 720 c0 -1.5 0.7 -2 2.4 -2 5 0 5.6 -2.5 5.6 -25.5 0 -23 -0.6 -25.5 -5.6 -25.5 -1.8 0 -2.4 -0.5 -2.4 -2.1 0 -2 0.3 -2.1 17.8 -1.7 15.8 0.3 18.1 0.5 21.7 2.5 5.2 2.8 7.9 5.7 10.7 11.8 3.3 7.2 3.3 22.8 0 30 -3 6.5 -5.6 9.3 -11.7 12.1 -4.6 2.2 -6.2 2.4 -21.7 2.4 -16.1 0 -16.8 -0.1 -16.8 -2z m32.5 -4.6 c13.7 -6.5 14.1 -38.9 0.5 -45.9 -1.7 -0.9 -6 -1.9 -9.5 -2.2 l-6.5 -0.6 0 25.8 0 25.8 5.9 -0.6 c3.2 -0.2 7.5 -1.3 9.6 -2.3z"/>
  <path d="M595 720 c0 -1.3 0.7 -2 1.9 -2 1 0 2.4 -0.7 3.1 -1.5 0.7 -0.8 5.6 -13.1 10.9 -27.2 l9.7 -25.8 3.9 0 4 0 9.5 26 c5.3 14.3 9.9 26.6 10.3 27.3 0.5 0.6 1.9 1.2 3.3 1.2 1.7 0 2.4 0.5 2.4 2 0 1.9 -0.7 2 -12 2 -11.2 0 -12 -0.1 -12 -1.9 0 -1.5 0.8 -2.1 3.3 -2.3 4.1 -0.4 4.6 -3.2 1.8 -10.3 l-1.9 -5 -10.4 -0.3 -10.4 -0.3 -2.3 6.6 c-2.6 7.4 -2 9.5 3 9.5 2.2 0 2.9 0.5 2.9 2 0 1.9 -0.7 2 -10.5 2 -9.8 0 -10.5 -0.1 -10.5 -2z m36 -22.9 c0 -0.7 -2.6 -8.4 -7.6 -22.1 -0.4 -1.1 -9 20 -9.4 22.8 0 0.1 3.8 0.2 8.5 0.2 4.7 0 8.5 -0.4 8.5 -0.9z"/>
  <path d="M661.5 696.8 c-4.8 -13.9 -9.4 -26.3 -10.1 -27.5 -0.8 -1.3 -2.3 -2.3 -3.4 -2.3 -1.3 0 -2 -0.7 -2 -2 0 -1.9 0.7 -2 11.5 -2 10.8 0 11.5 0.1 11.5 2 0 1.4 -0.7 2 -2.4 2 -5.2 0 -5 1.6 1.9 22.1 3.6 10.7 6.5 20.3 6.6 21.4 l0.1 2 0.5 -2 c0.2 -1.1 3.4 -10.7 7 -21.3 7.1 -20.8 7.1 -22.2 1.2 -22.2 -2.2 0 -2.9 -0.5 -2.9 -2 0 -1.9 0.7 -2 10.5 -2 9.8 0 10.5 0.1 10.5 2 0 1.3 -0.7 2 -1.9 2 -1.1 0 -2.6 0.9 -3.4 2.1 -0.8 1.1 -5.5 13.5 -10.3 27.5 l-8.9 25.4 -3.6 0 -3.6 0 -8.8 -25.2z"/>
  <path d="M705 720 c0 -1.5 0.7 -2 2.4 -2 5 0 5.6 -2.5 5.6 -25.5 0 -23 -0.6 -25.5 -5.6 -25.5 -1.7 0 -2.4 -0.5 -2.4 -2 0 -1.9 0.7 -2 12.5 -2 11.8 0 12.5 0.1 12.5 2 0 1.5 -0.7 2 -2.8 2 -5.1 0 -5.2 0.6 -5.2 25.5 0 24.9 0.1 25.5 5.2 25.5 2.1 0 2.8 0.5 2.8 2 0 1.9 -0.7 2 -12.5 2 -11.8 0 -12.5 -0.1 -12.5 -2z"/>
  <path d="M376.2 594.7 l-15.2 -30.3 0 -37.1 c0 -42.2 -1 -38.3 9.5 -38.3 l6.4 0 0.1 35.3 0 35.2 6.8 13.5 c4 8 7.4 13.6 8.4 13.8 1.5 0.3 3.8 -3.9 14.9 -27.3 0.5 -1.1 1 -17.3 1.2 -36 l0.2 -34 6.6 -0.3 c4.8 -0.2 6.9 0.1 7.8 1.2 0.9 1.1 1.1 10.5 0.9 37.8 l-0.3 36.3 -11.4 22.5 c-16.1 31.9 -18.1 35.9 -18.1 37 0 0.6 -0.6 1 -1.3 1 -0.7 0 -8.1 -13.6 -16.5 -30.3z"/>
  <path d="M328 385 l0 -91 12.9 0 12.8 0 0.1 36.6 c0.1 20.1 0.4 37 0.8 37.5 0.4 0.6 7.7 0.9 19 0.8 20.1 -0.2 20 -0.2 23.3 5.9 1.2 2.2 1.2 2.2 35.1 2.2 29.6 0 34 -0.2 34 -1.5 0 -0.8 -0.4 -1.5 -1 -1.5 -0.5 0 -1 -1.1 -1 -2.4 0 -1.4 -0.4 -2.8 -1 -3.1 -0.5 -0.3 -1 -2.2 -1 -4.1 0 -2.1 -0.4 -3.3 -1 -2.9 -0.5 0.3 -1 -0.2 -1 -1.3 0 -1.1 -1.6 -4 -3.5 -6.5 -1.9 -2.5 -3.5 -4.9 -3.5 -5.3 0 -0.9 -9.7 -10.4 -10.7 -10.4 -0.5 0 -1.4 -0.9 -2 -2 -0.7 -1 -2.8 -2.2 -4.8 -2.6 -1.9 -0.3 -3.5 -1 -3.5 -1.5 0 -0.5 -0.9 -0.9 -2 -0.9 -1.1 0 -2 -0.4 -2 -0.9 0 -0.5 -1.2 -1.2 -2.7 -1.5 -1.6 -0.4 -4.6 -1.2 -6.8 -1.7 -2.2 -0.6 -8.2 -1.4 -13.3 -1.8 -6.5 -0.5 -9.6 -1.1 -10.2 -2.1 -1.7 -2.8 -4.5 -6.4 -6.8 -8.7 -1.3 -1.3 -2 -2.3 -1.8 -2.3 0.7 0 -1.8 -3.1 -5.2 -6.6 -1.3 -1.3 -2 -2.4 -1.6 -2.4 0.4 0 -0.7 -1.4 -2.5 -3 -6.2 -6 -6.1 -6 24.9 -6 21.9 0 27.9 0.3 27.8 1.3 -0.2 0.7 1.6 1.5 5 2.1 2.8 0.5 5.2 1.3 5.2 1.8 0 0.4 0.9 0.8 2 0.8 1.1 0 2 0.4 2 0.8 0 0.4 2 1.6 4.5 2.6 2.5 1.1 4.5 2.3 4.5 2.8 0 0.4 1.1 0.8 2.4 0.8 1.6 0 2.7 0.7 3.1 1.9 0.3 1.1 1.5 2.3 2.5 2.6 1.1 0.3 4.8 3.4 8.2 6.9 4 3.9 6.9 6.1 8.1 5.8 0.9 -0.2 1.7 0.1 1.7 0.7 0 0.6 -0.4 1.1 -1 1.1 -1.8 0 -1.1 1.9 2 5 1.7 1.7 3 3.5 3 4 0 0.5 0.6 1.5 1.3 2.2 2 2.1 6.7 9.7 6.7 10.8 0 0.5 0.5 1 1 1 0.6 0 1 0.9 1 2 0 1.1 0.4 2.8 1 3.8 1.3 2.4 3.1 10.7 3.7 17 l0.5 5.4 8.3 -0.4 c7.1 -0.3 8.6 -0.6 10.3 -2.5 1.1 -1.3 2.5 -2.3 3.1 -2.3 0.7 0 2.4 -1.1 3.9 -2.5 3 -2.8 5.8 -3.1 8.6 -1 1.1 0.8 2.8 1.5 3.8 1.5 1 0 1.8 0.5 1.8 1 0 0.6 0.9 1 2.1 1 1.1 0 1.7 0.5 1.4 1 -0.3 0.6 0.3 1 1.4 1 1.2 0 2.1 0.5 2.1 1 0 0.6 0.9 1 2 1 1.1 0 2 0.4 2 0.9 0 0.5 1.3 1.2 3 1.6 1.6 0.4 3.2 1.1 3.5 1.6 0.4 0.5 1.5 0.9 2.6 0.9 1 0 1.9 0.5 1.9 1 0 0.6 1.4 1 3 1 2.9 0 3 0.2 3 4.5 0 4.1 -0.2 4.5 -2.5 4.5 -1.4 0 -2.5 0.5 -2.5 1 0 0.6 -0.9 1 -2 1 -1.1 0 -2 0.5 -2 1 0 0.6 -0.8 1 -1.7 1 -1 0 -3.8 1.1 -6.2 2.5 -2.3 1.4 -4.9 2.5 -5.7 2.5 -0.8 0 -1.4 0.5 -1.4 1 0 0.6 -0.7 1 -1.5 1 -0.8 0 -1.5 0.3 -1.5 0.8 0 0.8 -5.8 3 -10.1 3.9 -1.6 0.3 -3 -0.1 -3.8 -1.1 -0.8 -0.9 -2 -1.6 -2.7 -1.6 -0.8 0 -1.4 -0.4 -1.4 -1 0 -0.5 -0.5 -1 -1 -1 -0.6 0 -2 -0.9 -3.2 -2 -1.8 -1.7 -3.6 -2 -10.4 -2 l-8.2 0 -0.5 5.3 c-0.5 5.8 -2.8 15.1 -4 16.3 -0.4 0.4 -0.7 1.8 -0.7 3.1 0 1.2 -0.4 2.3 -1 2.3 -0.5 0 -1 0.4 -1 0.9 0 1.6 -7.2 13.4 -9.8 16.1 -3.1 3.3 -4.6 6 -3.2 6 0.5 0 1 0.5 1 1.1 0 0.6 -0.7 0.9 -1.6 0.7 -1.7 -0.3 -11.3 8.2 -10.7 9.5 0.2 0.4 -0.1 0.7 -0.7 0.7 -1.1 0 -2.6 1 -6.6 4.8 -1.4 1.2 -3.1 2.2 -3.9 2.2 -0.8 0 -1.5 0.3 -1.5 0.8 0 0.4 -2.2 1.8 -5 3.1 -2.7 1.3 -5 2.8 -5 3.2 0 0.5 -4.4 0.9 -9.9 0.9 -9.4 0 -9.9 -0.1 -10.6 -2.2 -0.4 -1.3 -0.7 -2.6 -0.6 -3 0.1 -0.5 -0.4 -0.8 -0.9 -0.8 -0.6 0 -1 -0.7 -1 -1.5 0 -0.9 -0.8 -2.5 -1.8 -3.6 -1.1 -1 -2.5 -3.2 -3.3 -4.7 -0.8 -1.5 -1.7 -2.9 -2 -3.2 -1.1 -1 -2 -9 -0.9 -9 0.5 0 1 0.4 1 1 0 1 5.6 0.8 6.7 -0.3 0.3 -0.4 1.7 -0.7 3 -0.7 1.3 0 2.3 -0.4 2.3 -1 0 -0.5 0.9 -1 2.1 -1 1.1 0 1.7 -0.4 1.4 -1 -0.3 -0.5 0.1 -1 0.9 -1 2.6 0 9 -3.4 11.8 -6.2 1.4 -1.6 3 -2.8 3.5 -2.8 1.2 0 4.7 -4 9.3 -10.5 1.9 -2.8 3.8 -5.1 4.2 -5.3 0.4 -0.2 0.8 -1.2 0.8 -2.3 0 -1 0.5 -1.9 1 -1.9 0.6 0 1 -1.5 1 -3.3 0 -1.9 0.3 -3.7 0.7 -4.1 0.8 -0.8 3.3 -7.9 2.9 -8.3 -0.1 -0.2 -60 -0.5 -67.3 -0.3 -0.6 0 -1.4 0.8 -1.8 1.9 -0.3 1 -1.4 2.8 -2.4 4 -1.7 1.9 -2.9 2.1 -20.7 2.3 l-18.9 0.3 -0.3 22.8 -0.2 22.7 21.1 0 c21.9 0 23.9 0.4 23.9 4.4 0 0.9 0.4 1.6 0.8 1.6 0.5 0 2.2 2.4 3.7 5.3 1.6 2.8 3.2 5.4 3.6 5.7 0.4 0.3 1.1 1.8 1.4 3.3 l0.7 2.7 -40.6 0 -40.6 0 0 -91z m29.5 8.9 c0.4 -1.1 1.8 -3.1 3.1 -4.4 1.4 -1.4 2 -2.5 1.4 -2.5 -1.6 0 -4 -2.6 -4 -4.2 0 -1.5 -1.9 -3.8 -3.2 -3.8 -0.4 0 -0.8 4 -0.8 9 0 7.4 0.2 8.8 1.5 8.4 0.8 -0.3 1.7 -1.5 2 -2.5z"/>
  <path d="M362.3 278.3 c-1 -0.3 -1.3 -4 -1.3 -13.4 0 -10.9 -0.2 -13.1 -1.6 -13.6 -1.4 -0.5 -20.4 8.4 -28.6 13.5 -1.5 0.9 -2.9 1.4 -3.2 1.2 -0.9 -1 -1 -17 -0.1 -17.9 1.4 -1.4 25 -13.1 26.4 -13.1 0.6 0 1.1 -0.4 1.1 -0.8 0 -0.9 11.1 -6.2 12.9 -6.2 0.6 0 1.1 -0.3 1.1 -0.7 0 -0.9 4.9 -3.3 6.7 -3.3 1.7 0 2.4 51.2 0.7 53.5 -0.8 1.1 -2.8 1.5 -7 1.4 -3.2 0 -6.5 -0.3 -7.1 -0.6z"/>
  <path d="M409.3 278.3 c-1 -0.3 -1.3 -6.8 -1.3 -27.4 0 -23.3 0.2 -26.9 1.5 -26.9 1.4 0 5.3 1.8 6.5 3 0.3 0.3 4.3 2.3 9 4.5 4.7 2.2 11.1 5.5 14.2 7.3 3.1 1.7 6.3 3.2 7.2 3.2 0.9 0 1.6 0.5 1.6 1 0 0.6 0.8 1 1.8 1 1 0 3.3 1.3 5.1 2.8 3.3 2.7 3.4 3 3.3 10.1 -0.1 7.8 -1.1 10.3 -3.6 8.2 -2.3 -2 -27.4 -14.1 -29.1 -14.1 -1.3 0 -1.5 2 -1.5 12.8 0 8.6 -0.4 13.2 -1.2 14 -1.2 1.2 -11 1.6 -13.5 0.5z"/>
  <path d="M384 218.2 c0 -1.3 17 -17.2 18.3 -17.2 0.9 0 1.1 2.6 0.9 9 l-0.3 9 -9.5 0 c-5.2 0 -9.4 -0.4 -9.4 -0.8z"/>
  <path d="M381 201.1 c0 -10.7 0.1 -11 2.7 -13.1 1.4 -1.1 6.2 -5.4 10.6 -9.5 4.3 -4.1 8.3 -7.3 8.7 -7 0.5 0.3 0.8 5.3 0.6 11.2 l-0.2 10.6 -4.9 4.1 c-2.7 2.3 -7.5 6.5 -10.6 9.4 -3.1 2.8 -5.9 5.2 -6.2 5.2 -0.4 0 -0.7 -4.9 -0.7 -10.9z"/>
  <path d="M381 171.6 l0 -10.4 6.8 -5.8 c3.7 -3.2 8.2 -7.3 10 -9.1 5.4 -5.4 6 -4.7 5.8 7.3 l-0.2 10.7 -3.4 2.6 c-1.9 1.4 -6.5 5.4 -10.2 8.9 -3.7 3.4 -7.2 6.2 -7.8 6.2 -0.6 0 -1 -3.9 -1 -10.4z"/>
  <path d="M381 142.6 l0 -10.5 10.5 -9 c5.7 -5 10.9 -9.1 11.4 -9.1 1.4 0 1.2 19 -0.2 21 -1.8 2.5 -19.7 18 -20.8 18 -0.5 0 -0.9 -4.6 -0.9 -10.4z"/>
  <path d="M381 117.6 l0 -6.5 3.3 -0.3 c3.6 -0.3 4.5 -3 1.2 -3.6 -4.5 -0.9 -10.5 -9.2 -10.5 -14.7 0 -4.2 2.9 -9.2 9.6 -16.3 3.6 -4 7.1 -7.2 7.7 -7.2 0.6 0 3.8 2.9 7.2 6.4 8.1 8.4 12.7 18.1 9.5 20.1 -0.5 0.3 -1 1.5 -1 2.5 0 2.2 -6.1 9 -8.2 9 -1.9 0.1 -6.8 4.6 -6.8 6.4 0 1.5 -9.5 10.6 -11.1 10.6 -0.5 0 -0.9 -2.9 -0.9 -6.4z"/>
 </g>
</svg>