<?xml version="1.0" encoding="utf-8"?>
<!DOCTYPE svg PUBLIC "-//W3C//DTD SVG 20010904//EN" "http://www.w3.org/TR/2001/REC-SVG-20010904/DTD/svg10.dtd">
<svg version="1.0" xmlns="http://www.w3.org/2000/svg" width="800px" height="800px" viewBox="0 0 800 800" preserveAspectRatio="xMidYMid meet">
 <g fill="#000000">
  <path d="M96.5 722.1 c-11.4 -3 -18.1 -12.3 -19.2 -26.4 -0.8 -11.2 2.8 -22.6 8.7 -27.5 9.8 -8.1 25.4 -7.8 33.9 0.7 10.3 10.3 11.1 33.2 1.7 45.6 -4.6 6 -16.9 9.8 -25.1 7.6z m12.8 -4.5 c7.4 -3 10.7 -10.8 10.7 -25.1 0 -11.4 -1.6 -17.4 -5.9 -21.7 -7.7 -7.6 -21.1 -5.7 -25.5 3.7 -4 8.4 -4 27.6 -0.1 35.9 3.5 7.4 12.7 10.6 20.8 7.2z"/>
  <path d="M746.5 722.1 c-5.1 -1.3 -7.6 -3.1 -9.1 -6.6 -1.6 -3.8 -0.6 -7.8 2.1 -8.9 2.4 -0.9 2.5 -0.8 2.5 2 0 3.7 2.9 8.1 6.2 9.5 4.1 1.7 11.4 0.6 14.4 -2.2 1.9 -1.8 2.4 -3.2 2.4 -7.5 0 -4.6 -0.4 -5.5 -3.1 -7.9 -1.8 -1.4 -6.2 -4 -9.8 -5.6 -8 -3.6 -12.8 -8.1 -14.2 -13.1 -2.2 -8.5 1.8 -15.8 10.4 -18.3 6 -1.8 7.9 -1.8 13.1 -0.4 7.6 2.1 11.2 9 6.4 12.3 -3.2 2.3 -3.8 2 -3.8 -1.4 0 -7.4 -10.5 -10.9 -16.7 -5.6 -2.4 2.1 -2.8 3.2 -2.8 7.5 0 6.5 1.7 8.2 13.8 14.1 11.1 5.4 13.7 8.6 13.7 16.5 0 6.2 -2.8 10.9 -8 13.6 -4.1 2.1 -13.2 3.2 -17.5 2z"/>
  <path d="M36 720.5 c0 -0.9 0.9 -1.5 2.5 -1.5 1.4 0 3.4 -0.9 4.5 -2 1.9 -1.9 2 -3.3 2 -26 l0 -24 -6 0 c-7 0 -10 2.1 -10 7 0 2.3 -0.4 3 -2 3 -1.8 0 -2 -0.7 -2 -7 l0 -7 22.9 0 22.8 0 0.7 3.8 c1.2 7.3 0.8 10.2 -1.4 10.2 -1.6 0 -2 -0.7 -2 -3 0 -4.9 -3 -7 -10 -7 l-6 0 0 24.4 c0 24.2 0 24.5 2.2 26 1.2 0.9 3.3 1.6 4.5 1.6 1.4 0 2.3 0.6 2.3 1.5 0 1.3 -2.1 1.5 -12.5 1.5 -10.4 0 -12.5 -0.2 -12.5 -1.5z"/>
  <path d="M137 720.7 c0 -0.7 1.5 -1.7 3.3 -2.2 l3.2 -1 0 -25 0 -25 -3.2 -1 c-1.8 -0.5 -3.3 -1.5 -3.3 -2.2 0 -1 2.3 -1.3 8.8 -1.3 l8.8 0 8.4 23.3 c4.6 12.7 8.5 23.4 8.7 23.6 0.7 1 1.9 -1.8 9.7 -23.6 l8.2 -22.8 8.7 -0.3 c7 -0.2 8.7 0 8.7 1.1 0 0.8 -1.4 1.7 -3 2.1 -2 0.4 -3.4 1.4 -4 3.1 -0.6 1.5 -1 11.8 -1 23 0 11.2 0.4 21.5 1 23 0.6 1.7 2 2.7 4 3.1 1.6 0.4 3 1.3 3 2 0 1.1 -2.3 1.4 -10.5 1.4 -7.9 0 -10.5 -0.3 -10.5 -1.3 0 -0.7 1.4 -1.8 3 -2.4 l3 -1.1 -0.1 -24.4 c0 -13.3 -0.3 -23.8 -0.5 -23.3 -0.3 0.6 -4.6 12.5 -9.7 26.5 -7.7 21.3 -9.5 25.5 -11.1 25.5 -1.6 0 -3.5 -4.3 -11.3 -25.5 -5.1 -14 -9.5 -25.9 -9.7 -26.5 -0.2 -0.5 -0.5 10 -0.5 23.3 l-0.1 24.4 3 1.1 c1.7 0.6 3 1.7 3 2.4 0 1 -2.4 1.3 -9 1.3 -6.7 0 -9 -0.3 -9 -1.3z"/>
  <path d="M214 720.7 c0 -0.7 1.5 -1.7 3.3 -2.2 l3.2 -1 0 -25 0 -25 -3.2 -1 c-1.8 -0.5 -3.3 -1.5 -3.3 -2.2 0 -1 2.3 -1.3 8.8 -1.3 l8.8 0 8.4 23.3 c4.6 12.7 8.5 23.4 8.7 23.6 0.7 1 1.9 -1.8 9.7 -23.6 l8.2 -22.8 8.7 -0.3 c7 -0.2 8.7 0 8.7 1.1 0 0.8 -1.4 1.7 -3 2.1 -2 0.4 -3.4 1.4 -4 3.1 -0.6 1.5 -1 11.8 -1 23 0 11.2 0.4 21.5 1 23 0.6 1.7 2 2.7 4 3.1 1.6 0.4 3 1.3 3 2 0 1.1 -2.3 1.4 -10.5 1.4 -7.9 0 -10.5 -0.3 -10.5 -1.3 0 -0.7 1.4 -1.8 3 -2.4 l3 -1.1 -0.1 -24.4 c0 -13.3 -0.3 -23.8 -0.5 -23.3 -0.3 0.6 -4.6 12.5 -9.7 26.5 -7.7 21.3 -9.5 25.5 -11.1 25.5 -1.6 0 -3.5 -4.3 -11.3 -25.5 -5.1 -14 -9.5 -25.9 -9.7 -26.5 -0.2 -0.5 -0.5 10 -0.5 23.3 l-0.1 24.4 3 1.1 c1.7 0.6 3 1.7 3 2.4 0 1 -2.4 1.3 -9 1.3 -6.7 0 -9 -0.3 -9 -1.3z"/>
  <path d="M302 720.5 c0 -0.8 0.9 -1.5 2.1 -1.5 1.1 0 2.9 -0.5 4 -1 1.7 -1 1.9 -2.2 1.9 -11.2 l0 -10.2 -8.2 -14.5 c-6.3 -11 -9 -14.7 -11 -15.5 -1.6 -0.6 -2.8 -1.6 -2.8 -2.3 0 -1 2.7 -1.3 11 -1.3 9.1 0 11 0.3 11 1.5 0 0.9 -0.9 1.5 -2.4 1.5 -1.3 0 -3 0.7 -3.7 1.6 -1.1 1.4 -0.4 3.4 5.1 14 3.5 6.8 6.5 12.4 6.6 12.4 0.5 0 11.5 -20.4 12 -22.4 0.7 -2.9 -1.8 -5.6 -5.2 -5.6 -1.5 0 -2.4 -0.6 -2.4 -1.5 0 -1.2 1.8 -1.5 10 -1.5 8.2 0 10 0.3 10 1.5 0 0.8 -0.6 1.5 -1.3 1.5 -2.4 0 -6.3 5.3 -13.6 18.2 l-7.1 12.7 0 9.5 c0 8.7 0.2 9.6 2.2 11 1.2 0.9 3.3 1.6 4.5 1.6 1.4 0 2.3 0.6 2.3 1.5 0 1.3 -2.1 1.5 -12.5 1.5 -10.4 0 -12.5 -0.2 -12.5 -1.5z"/>
  <path d="M365 720.7 c0 -0.7 1.5 -1.7 3.3 -2.2 l3.2 -1 0 -25 0 -25 -3.2 -1 c-1.8 -0.5 -3.3 -1.5 -3.3 -2.2 0 -1 2.8 -1.3 11.5 -1.3 9.6 0 11.5 0.3 11.5 1.5 0 0.8 -0.8 1.5 -1.8 1.5 -1 0 -2.8 0.7 -4 1.6 -2.2 1.5 -2.2 1.8 -2.2 26 l0 24.4 9.6 0 c5.2 0 10.4 -0.4 11.4 -1 2.1 -1.1 4 -6 4 -10.1 0 -2.3 0.5 -2.9 2.1 -2.9 2.1 0 2.2 0.3 1.5 6.1 -0.3 3.4 -0.6 7.5 -0.6 9 l0 2.9 -21.5 0 c-16.9 0 -21.5 -0.3 -21.5 -1.3z"/>
  <path d="M416 720.7 c0 -0.7 1.5 -1.7 3.3 -2.2 l3.2 -1 0 -25 0 -25 -3.2 -1 c-1.8 -0.5 -3.3 -1.5 -3.3 -2.2 0 -1 4.4 -1.3 20.5 -1.3 l20.5 0 0 7 c0 6.3 -0.2 7 -2 7 -1.6 0 -2 -0.7 -2 -3 0 -5.5 -2.8 -7 -13 -7 l-9 0 0 11 0 11 10 0 c9.3 0 10 0.1 10 2 0 1.9 -0.7 2 -10 2 l-10 0 0 12.5 0 12.5 10 0 c9.4 0 10.3 -0.2 12.5 -2.5 1.4 -1.3 2.5 -3.6 2.5 -5 0 -1.8 0.5 -2.5 2 -2.5 2.2 0 2.3 0.7 1.4 8.8 l-0.7 5.2 -21.3 0 c-16.8 0 -21.4 -0.3 -21.4 -1.3z"/>
  <path d="M468 720.7 c0 -0.7 1.5 -1.7 3.3 -2.2 l3.2 -1 0 -25 0 -25 -3.2 -1 c-1.8 -0.5 -3.3 -1.5 -3.3 -2.2 0 -1 4.4 -1.3 20.5 -1.3 l20.5 0 0 7 c0 6.3 -0.2 7 -2 7 -1.6 0 -2 -0.7 -2 -3 0 -5.5 -2.8 -7 -13 -7 l-9 0 0 11 0 11 10 0 c9.3 0 10 0.1 10 2 0 1.9 -0.7 2 -10 2 l-10 0 0 12.5 0 12.5 10 0 c9.4 0 10.3 -0.2 12.5 -2.5 1.4 -1.3 2.5 -3.6 2.5 -5 0 -1.8 0.5 -2.5 2 -2.5 2.2 0 2.3 0.7 1.4 8.8 l-0.7 5.2 -21.3 0 c-16.8 0 -21.4 -0.3 -21.4 -1.3z"/>
  <path d="M540 720.8 c0 -0.8 1.5 -1.8 3.3 -2.3 l3.2 -1 0 -25 0 -25 -3.2 -1 c-1.8 -0.5 -3.3 -1.5 -3.3 -2.2 0 -1.6 23.5 -1.8 30.9 -0.2 12.2 2.6 19 11.3 19.9 25.4 0.9 14 -3.5 23.8 -12.9 29 -5.3 2.9 -5.8 3 -21.6 3.3 -13.5 0.3 -16.3 0.2 -16.3 -1z m34.4 -6.2 c5.9 -4.4 8 -10.2 8.1 -21.6 0 -10.5 -1.3 -15.4 -5.3 -20.2 -3.5 -4.2 -7.9 -5.8 -15.7 -5.8 l-6.5 0 0 25.6 0 25.6 7.8 -0.3 c6.8 -0.4 8.4 -0.8 11.6 -3.3z"/>
  <path d="M595 720.6 c0 -0.7 1.3 -1.6 2.9 -1.9 3.3 -0.7 3.8 -1.8 16 -34.2 7.7 -20.6 7.9 -21 10.7 -21 2.8 0 2.9 0.3 12.6 26.5 9.1 24.9 11.2 29 14.5 29 0.7 0 1.3 0.7 1.3 1.5 0 1.2 -1.9 1.5 -11 1.5 -8.3 0 -11 -0.3 -11 -1.3 0 -0.7 1.5 -1.7 3.3 -2.2 4 -1.2 4.5 -4 1.8 -11 l-1.9 -5 -11.5 -0.3 -11.5 -0.3 -2.1 6.3 c-1.2 3.4 -2.1 6.5 -2.1 6.9 0 1.6 3.3 3.9 5.6 3.9 1.5 0 2.4 0.6 2.4 1.5 0 1.2 -1.8 1.5 -10 1.5 -7.8 0 -10 -0.3 -10 -1.4z m37 -23.5 c0 -0.7 -5.2 -15.9 -8.6 -25.1 -0.4 -1.1 -10.1 23 -10.4 25.8 0 0.1 4.3 0.2 9.5 0.2 5.2 0 9.5 -0.4 9.5 -0.9z"/>
  <path d="M664.5 702.3 c-11.9 -34.4 -12.3 -35.3 -15.6 -36 -1.6 -0.3 -2.9 -1.2 -2.9 -1.9 0 -1.1 2.3 -1.4 11 -1.4 8.7 0 11 0.3 11 1.4 0 0.7 -1.3 1.6 -2.9 1.9 -1.7 0.4 -3 1.4 -3.4 2.6 -0.2 1.1 2.3 10.2 5.7 20.3 3.5 10.1 6.6 19.9 7 21.8 0.6 3.2 1.4 1.4 8.1 -18.5 4.1 -12.1 7.5 -22.3 7.5 -22.7 0 -1.5 -3.3 -3.8 -5.6 -3.8 -1.5 0 -2.4 -0.6 -2.4 -1.5 0 -1.2 1.8 -1.5 10 -1.5 7.5 0 10 0.3 10 1.3 0 0.7 -1.5 1.7 -3.2 2.2 -3.3 1 -3.4 1.3 -12.8 28.2 -9.1 26.1 -9.6 27.3 -12.1 27.3 -2.4 0 -2.9 -1 -9.4 -19.7z"/>
  <path d="M706 720.7 c0 -0.7 1.5 -1.7 3.3 -2.2 l3.2 -1 0 -25 0 -25 -3.2 -1 c-1.8 -0.5 -3.3 -1.5 -3.3 -2.2 0 -1 2.8 -1.3 11.5 -1.3 9.6 0 11.5 0.3 11.5 1.5 0 0.8 -0.8 1.5 -1.8 1.5 -1 0 -2.8 0.7 -4 1.6 -2.2 1.5 -2.2 1.9 -2.2 24.9 0 23 0 23.4 2.2 24.9 1.2 0.9 3 1.6 4 1.6 1 0 1.8 0.7 1.8 1.5 0 1.2 -1.9 1.5 -11.5 1.5 -8.7 0 -11.5 -0.3 -11.5 -1.3z"/>
  <path d="M389.4 620.5 c-1 -2.5 -2.2 -4.5 -2.6 -4.5 -0.4 0 -0.8 -0.9 -0.8 -2 0 -1.1 -0.4 -2 -1 -2 -0.5 0 -0.9 -0.3 -0.8 -0.7 0.3 -1.1 -5.4 -12.7 -6.4 -13.1 -0.4 -0.2 -0.8 -1 -0.8 -1.7 0 -1.7 -7.2 -15.9 -8.2 -16.3 -0.5 -0.2 -0.8 -1.2 -0.8 -2.3 0 -1 -0.4 -1.9 -1 -1.9 -0.5 0 -1 -0.6 -1 -1.3 0 -0.6 -1.1 -3.3 -2.5 -5.9 l-2.5 -4.7 0 -36.9 c0 -42 -1 -38.2 9.5 -38.2 l6.3 0 0.1 35.6 c0.2 34.2 0.3 35.8 2.3 40.2 1.2 2.6 2.4 4.9 2.7 5.2 1.3 1.1 6.1 11.1 6.1 12.6 0 2.1 2.4 4.4 4.7 4.4 1.3 0 2.9 -2.4 5.7 -8.3 2.2 -4.5 4 -8.4 4.1 -8.7 0.6 -2.6 1.8 -5 2.5 -5 1.8 0 2.4 -7.4 2.9 -40.5 l0.6 -35 6.6 -0.3 c4.9 -0.2 6.9 0.1 7.8 1.2 1.8 2.1 1.2 75.7 -0.6 76.4 -0.7 0.2 -1.3 1.2 -1.3 2.2 0 1 -0.4 2 -0.8 2.2 -1 0.4 -6.2 11.1 -6.2 12.6 0 0.7 -0.4 1.2 -1 1.2 -0.5 0 -1 0.9 -1 1.9 0 1.1 -0.4 2.1 -0.8 2.3 -0.9 0.4 -6.5 11.6 -6 12.1 0.2 0.2 -0.2 1 -0.9 1.8 -2 2.4 -10.3 18.9 -10.3 20.5 0 3 -2.8 1.2 -4.6 -3.1z"/>
  <path d="M328 385 l0 -91 12 0 12 0 0 12.3 c0 6.7 0 42.9 0 80.5 l0 68.2 21.5 0 21.6 0 1 3 c0.6 1.7 1.5 3 2 3 0.5 0 0.9 0.7 0.9 1.5 0 0.8 0.5 1.5 1 1.5 0.6 0 1 0.5 1 1.1 0 0.6 1.3 3 3 5.3 1.6 2.4 2.6 4.6 2.3 5 -0.4 0.3 -18.1 0.6 -39.5 0.6 l-38.8 0 0 -91z"/>
  <path d="M424.3 467.8 c-2.6 -4.6 -5 -8.7 -5.2 -9.3 -0.2 -0.5 -1.1 -1.6 -1.9 -2.4 -1.2 -1.3 -0.8 -1.6 3.4 -2.8 6 -1.7 18.9 -8.1 21.9 -10.8 1.2 -1.1 4.1 -3.5 6.3 -5.3 3.7 -2.9 10.1 -11.7 15.3 -20.9 1 -1.7 2.1 -4.9 2.5 -7 0.4 -2.1 1.1 -4.3 1.6 -5 0.5 -0.6 0.8 -3.1 0.6 -5.5 l-0.3 -4.3 -35.7 -0.3 -35.7 -0.2 -1.8 2.5 c-5 7.2 -3 6.6 -22.2 6.3 l-17.4 -0.3 2.4 -3 c1.3 -1.7 2.9 -3.9 3.5 -5 1.1 -2 2.4 -2 75.9 -2.3 54.9 -0.1 75.2 -0.5 76.2 -1.4 0.8 -0.6 1.3 -2.3 1.1 -3.7 l-0.3 -2.6 -75.5 -0.5 c-41.5 -0.3 -76.1 -0.9 -76.7 -1.3 -0.7 -0.5 -1.3 -1.3 -1.3 -1.9 0 -0.5 -1.1 -2.3 -2.5 -4 -1.4 -1.6 -2.5 -3.3 -2.5 -3.6 0 -0.4 7.8 -0.6 17.2 -0.5 l17.3 0.2 2.3 2.8 c1.2 1.5 2.7 3.4 3.3 4.1 0.7 0.9 9.4 1.2 36.9 1.2 l36 0 0 -4.9 c0 -2.8 -0.4 -5.3 -1 -5.6 -0.5 -0.3 -1 -1.5 -1 -2.7 0 -2.5 -5 -12.7 -9.3 -18.9 -3.9 -5.7 -10.4 -12.9 -11.5 -12.9 -0.5 0 -1.7 -0.9 -2.7 -2 -1 -1.1 -3.2 -2.7 -4.9 -3.6 -8.3 -4.4 -12.7 -6.4 -14 -6.4 -0.8 0 -1.8 -0.4 -2.1 -1 -0.3 -0.5 -2.1 -1 -4 -1 -1.9 0 -3.7 -0.4 -4 -1 -0.3 -0.5 -4.3 -1 -8.7 -1 -6.7 0 -8.3 -0.3 -9.7 -1.9 -0.9 -1 -5.2 -6.4 -9.6 -12 -4.3 -5.6 -8.3 -10.1 -8.8 -10.1 -0.4 0 -0.5 -0.4 -0.2 -1 0.4 -0.6 8.2 -1 20.1 -1 18.2 0 19.5 0.1 21.1 2 1.1 1.2 3 2 5 2 1.8 0 3.3 0.5 3.3 1 0 0.6 1.1 1 2.4 1 1.4 0 2.8 0.5 3.1 1 0.3 0.6 1.7 1 3.1 1 1.3 0 2.4 0.5 2.4 1 0 0.6 0.7 1 1.6 1 1.6 0 11.4 4.8 12.4 6.1 0.3 0.3 1.6 1.2 2.9 1.9 3.4 1.7 4.3 2.5 12.7 10.4 4.1 3.8 7.4 7.3 7.4 7.7 0 0.5 1 1.9 2.3 3.3 4.1 4.5 6.7 8.4 6.7 10 0 0.9 0.4 1.6 0.8 1.6 0.8 0 3 5.8 5.2 14 0.6 2.5 1.6 5.3 2.1 6.2 0.5 1 0.9 3.3 0.9 5.2 0 1.8 0.7 5 1.5 7 l1.5 3.6 8.9 0 c6.7 0 9.7 -0.4 12 -1.7 1.7 -1 3.1 -2.1 3.1 -2.5 0 -0.5 0.6 -0.8 1.3 -0.8 0.8 0 2.2 -0.9 3.2 -2 1 -1.1 2.6 -2 3.6 -2 0.9 0 8.4 3.4 16.6 7.5 8.1 4.1 15.4 7.5 16.1 7.5 0.6 0 1.2 0.5 1.2 1 0 0.6 -0.8 1 -1.7 1 -0.9 0 -8.3 3.4 -16.4 7.5 -8.1 4.1 -15.2 7.5 -15.8 7.5 -0.5 0 -1.6 -0.6 -2.3 -1.3 -0.7 -0.7 -3.8 -3 -6.9 -5 -5.2 -3.4 -6.1 -3.7 -13.2 -3.7 -8.8 0 -10.7 0.5 -10.7 3 0 1.1 -0.4 2.2 -1 2.5 -0.5 0.3 -1 2.6 -1 5.1 0 2.4 -0.4 5.2 -0.9 6.2 -0.5 0.9 -1.7 4.4 -2.6 7.7 -2.8 9.5 -7.6 18.9 -13.2 25.4 -0.7 0.9 -2.8 3.3 -4.5 5.5 -3.6 4.3 -16.1 14.6 -17.7 14.6 -0.6 0 -1.1 0.4 -1.1 0.9 0 0.8 -14.1 8.1 -16.5 8.5 -0.5 0.1 -2 0.7 -3.2 1.4 -1.2 0.7 -2.6 1.2 -3.1 1.2 -0.6 0 -3.2 -3.7 -5.9 -8.2z"/>
  <path d="M362.2 277.8 c-0.8 -0.8 -1.2 -5.4 -1.2 -14 0 -11.3 -0.2 -12.8 -1.7 -12.8 -2.4 0 -8.3 2.3 -8.3 3.2 0 0.4 -0.9 0.8 -1.9 0.8 -1.1 0 -2.1 0.3 -2.3 0.8 -0.5 1.1 -10.6 6.2 -12.3 6.2 -0.8 0 -1.5 0.4 -1.5 0.9 0 0.5 -0.8 1.1 -1.7 1.5 -1 0.3 -2.4 0.9 -3 1.2 -1 0.4 -1.3 -1.6 -1.3 -8.3 0 -7.9 0.2 -9 2.1 -10.2 3.9 -2.3 8.3 -4.6 12.9 -6.6 2.5 -1 5.7 -2.7 7.2 -3.7 1.4 -1 3.3 -1.8 4.2 -1.8 0.9 0 1.6 -0.4 1.6 -0.8 0 -0.4 2.3 -1.6 5 -2.7 2.8 -1.1 5 -2.3 5 -2.7 0 -0.4 0.9 -0.8 2 -0.8 1.1 0 2 -0.3 2 -0.7 0 -0.9 4.9 -3.3 6.7 -3.3 1.7 0 2.4 51.2 0.7 53.5 -1.4 1.9 -12.4 2.1 -14.2 0.3z"/>
  <path d="M409.3 278.3 c-1 -0.3 -1.3 -6.8 -1.3 -27.4 0 -25 0.1 -26.9 1.8 -26.9 0.9 0 2.8 0.9 4.2 2 1.4 1.1 3.1 2 3.8 2 0.6 0 1.2 0.5 1.2 1 0 0.6 0.7 1 1.4 1 0.8 0 3.6 1.1 6.2 2.5 2.6 1.4 5.3 2.5 6 2.5 0.8 0 1.4 0.5 1.4 1 0 0.6 0.7 1 1.5 1 0.8 0 1.5 0.5 1.5 1 0 0.6 0.8 1 1.8 1 0.9 0 2.6 0.7 3.6 1.5 1.1 0.8 2.8 1.5 3.8 1.5 1 0 1.8 0.5 1.8 1 0 0.6 0.9 1 2 1 1.1 0 2 0.5 2 1 0 0.6 0.5 1 1 1 0.6 0 2 0.9 3.2 1.9 1.7 1.7 2.1 3.1 2 9.2 0 4.2 -0.5 7.6 -1.2 8.3 -0.9 0.8 -1.4 0.8 -1.7 -0.1 -0.3 -0.7 -1.1 -1.3 -1.9 -1.3 -0.8 0 -1.4 -0.4 -1.4 -1 0 -0.5 -0.7 -1 -1.5 -1 -1.7 0 -11.8 -5.1 -12.3 -6.2 -0.2 -0.5 -0.9 -0.8 -1.6 -0.8 -0.7 0 -3.4 -1.1 -6.2 -2.4 -2.7 -1.3 -5.2 -2.2 -5.6 -1.9 -0.5 0.2 -0.8 6.2 -0.8 13.2 0 8.5 -0.4 13.1 -1.2 13.9 -1.2 1.2 -11 1.6 -13.5 0.5z"/>
  <path d="M384 218.3 c0 -1.2 17.2 -17.3 18.5 -17.3 0.6 0 0.9 3.2 0.7 9 l-0.3 9 -9.5 0 c-5.2 0 -9.4 -0.3 -9.4 -0.7z"/>
  <path d="M381 201.1 l0 -10.9 3.3 -2.5 c1.7 -1.4 6.3 -5.5 10.1 -9.1 3.8 -3.6 7.4 -6.6 8 -6.6 0.8 0 1.2 3.2 1.1 10.6 -0.1 11.9 0.8 10 -9.1 18.1 -2.1 1.7 -5.8 5 -8.2 7.2 -2.3 2.3 -4.4 4.1 -4.7 4.1 -0.3 0 -0.5 -4.9 -0.5 -10.9z"/>
  <path d="M381 171.7 c0 -10 0.1 -10.4 2.8 -13 1.5 -1.5 3.1 -2.7 3.4 -2.7 0.4 0 3.7 -2.9 7.4 -6.5 3.7 -3.6 7.3 -6.5 7.9 -6.5 2 0 1.3 20.4 -0.8 22.4 -0.8 0.9 -2 1.6 -2.5 1.6 -0.5 0 -3.5 2.6 -6.6 5.8 -3.2 3.3 -7.1 6.7 -8.7 7.6 l-2.9 1.7 0 -10.4z"/>
  <path d="M381 142.7 c0 -10 0.1 -10.4 2.8 -13 1.5 -1.5 3.1 -2.7 3.4 -2.7 0.4 0 3.7 -2.9 7.5 -6.5 3.7 -3.5 7.3 -6.5 8 -6.5 0.9 0 1.2 2.8 1.1 9.8 0 7.8 -0.4 10.2 -1.8 12 -1 1.2 -2.3 2.2 -2.8 2.2 -0.6 0 -1.2 0.3 -1.4 0.8 -0.7 1.5 -14.7 14.2 -15.7 14.2 -0.7 0 -1.1 -3.5 -1.1 -10.3z"/>
  <path d="M381 117.5 l0 -6.5 2.9 0 c3.6 0 5.1 -2 2.7 -3.4 -6.1 -3.6 -8.3 -5.6 -9.8 -8.6 -3.6 -7.4 -1.8 -12.6 7.9 -22.8 3.8 -4 7.2 -7.2 7.6 -7.2 2.3 0 15.7 15.7 15.7 18.4 0 0.8 0.5 1.8 1 2.1 0.6 0.3 1 1.7 1 3.1 0 1.3 -0.4 2.4 -1 2.4 -0.5 0 -1 1.1 -1 2.3 0 2.5 -6.2 9.7 -8.3 9.7 -1.7 0.1 -6.7 4.6 -6.7 6.1 0 1.3 -9.8 10.9 -11.2 10.9 -0.4 0 -0.8 -2.9 -0.8 -6.5z"/>
 </g>
</svg>